<?xml version="1.0" encoding="UTF-8"?>
<svg xmlns="http://www.w3.org/2000/svg" xmlns:xlink="http://www.w3.org/1999/xlink" width="32pt" height="32pt" viewBox="0 0 32 32" version="1.1">
<g id="surface1">
<path style=" stroke:none;fill-rule:nonzero;fill:rgb(0%,0%,0%);fill-opacity:1;" d="M 21.539062 17.722656 C 20.339844 17.726562 19.199219 18.242188 18.410156 19.144531 L 16.449219 17.757812 C 16.65625 17.183594 16.777344 16.566406 16.777344 15.925781 C 16.777344 15.308594 16.667969 14.699219 16.460938 14.121094 L 18.417969 12.75 C 19.207031 13.648438 20.34375 14.164062 21.539062 14.164062 C 23.839844 14.160156 25.707031 12.292969 25.710938 9.992188 C 25.707031 7.6875 23.839844 5.824219 21.539062 5.820312 C 19.238281 5.824219 17.371094 7.6875 17.367188 9.992188 C 17.367188 10.402344 17.429688 10.789062 17.539062 11.175781 L 15.585938 12.550781 C 14.765625 11.535156 13.589844 10.828125 12.246094 10.609375 L 12.246094 8.25 C 14.175781 7.839844 15.558594 6.140625 15.5625 4.167969 C 15.554688 1.867188 13.6875 0.00390625 11.386719 0 C 9.085938 0.00390625 7.21875 1.871094 7.214844 4.171875 C 7.214844 6.152344 8.601562 7.808594 10.457031 8.234375 L 10.457031 10.636719 C 7.929688 11.066406 6 13.273438 6 15.925781 C 6 18.589844 7.945312 20.804688 10.492188 21.234375 L 10.492188 23.757812 C 8.621094 24.15625 7.21875 25.835938 7.21875 27.828125 C 7.222656 30.128906 9.085938 31.996094 11.386719 32 C 13.691406 31.996094 15.554688 30.128906 15.558594 27.828125 C 15.558594 25.835938 14.15625 24.167969 12.285156 23.757812 L 12.285156 21.234375 C 13.597656 21.011719 14.753906 20.316406 15.5625 19.324219 L 17.535156 20.722656 C 17.425781 21.105469 17.367188 21.5 17.367188 21.894531 C 17.371094 24.199219 19.234375 26.0625 21.539062 26.066406 C 23.839844 26.0625 25.707031 24.199219 25.710938 21.894531 C 25.707031 19.59375 23.839844 17.726562 21.539062 17.722656 Z M 21.539062 7.96875 C 22.652344 7.96875 23.558594 8.878906 23.558594 9.992188 C 23.558594 11.109375 22.652344 12.015625 21.539062 12.015625 C 20.421875 12.015625 19.515625 11.109375 19.515625 9.992188 C 19.515625 8.878906 20.421875 7.96875 21.539062 7.96875 Z M 9.367188 4.171875 C 9.367188 3.058594 10.273438 2.148438 11.390625 2.148438 C 12.503906 2.148438 13.410156 3.058594 13.410156 4.171875 C 13.410156 5.285156 12.503906 6.195312 11.390625 6.195312 C 10.273438 6.195312 9.367188 5.285156 9.367188 4.171875 Z M 13.410156 27.828125 C 13.410156 28.945312 12.503906 29.851562 11.386719 29.851562 C 10.273438 29.851562 9.363281 28.945312 9.363281 27.828125 C 9.363281 26.714844 10.273438 25.808594 11.386719 25.808594 C 12.503906 25.808594 13.410156 26.714844 13.410156 27.828125 Z M 11.386719 18.746094 C 9.832031 18.746094 8.566406 17.484375 8.566406 15.929688 C 8.566406 14.371094 9.832031 13.109375 11.386719 13.109375 C 12.941406 13.109375 14.207031 14.371094 14.207031 15.929688 C 14.207031 17.484375 12.941406 18.746094 11.386719 18.746094 Z M 21.535156 23.921875 C 20.421875 23.921875 19.515625 23.011719 19.515625 21.898438 C 19.515625 20.78125 20.421875 19.875 21.535156 19.875 C 22.652344 19.875 23.558594 20.78125 23.558594 21.898438 C 23.558594 23.011719 22.652344 23.921875 21.535156 23.921875 Z M 21.535156 23.921875 "/>
</g>
</svg>
