<?xml version="1.0" encoding="UTF-8" standalone="no"?>
<svg xmlns="http://www.w3.org/2000/svg" viewBox="0 0 24 24"><title>Docker</title><g id="Docker"><g id="_Group_" data-name="&lt;Group&gt;"><circle id="_Path_" data-name="&lt;Path&gt;" cx="5.04" cy="16" r="0.5" style="fill:none;stroke:#303c42;stroke-linecap:round;stroke-linejoin:round"/><rect id="_Rectangle_" data-name="&lt;Rectangle&gt;" x="1.5" y="9.5" width="3" height="3" style="fill:none;stroke:#303c42;stroke-linecap:round;stroke-linejoin:round"/><rect id="_Rectangle_2" data-name="&lt;Rectangle&gt;" x="4.5" y="9.5" width="3" height="3" style="fill:none;stroke:#303c42;stroke-linecap:round;stroke-linejoin:round"/><rect id="_Rectangle_3" data-name="&lt;Rectangle&gt;" x="7.5" y="9.5" width="3" height="3" style="fill:none;stroke:#303c42;stroke-linecap:round;stroke-linejoin:round"/><rect id="_Rectangle_4" data-name="&lt;Rectangle&gt;" x="10.5" y="9.5" width="3" height="3" style="fill:none;stroke:#303c42;stroke-linecap:round;stroke-linejoin:round"/><rect id="_Rectangle_5" data-name="&lt;Rectangle&gt;" x="4.5" y="6.5" width="3" height="3" style="fill:none;stroke:#303c42;stroke-linecap:round;stroke-linejoin:round"/><rect id="_Rectangle_6" data-name="&lt;Rectangle&gt;" x="7.5" y="6.5" width="3" height="3" style="fill:none;stroke:#303c42;stroke-linecap:round;stroke-linejoin:round"/><rect id="_Rectangle_7" data-name="&lt;Rectangle&gt;" x="10.5" y="6.5" width="3" height="3" style="fill:none;stroke:#303c42;stroke-linecap:round;stroke-linejoin:round"/><rect id="_Rectangle_8" data-name="&lt;Rectangle&gt;" x="10.5" y="3.5" width="3" height="3" style="fill:none;stroke:#303c42;stroke-linecap:round;stroke-linejoin:round"/><rect id="_Rectangle_9" data-name="&lt;Rectangle&gt;" x="13.5" y="9.5" width="3" height="3" style="fill:none;stroke:#303c42;stroke-linecap:round;stroke-linejoin:round"/><path id="_Path_2" data-name="&lt;Path&gt;" d="M23.5,11.5s-1.75-1.12-3-.5A3.45,3.45,0,0,0,19,8.5a3.64,3.64,0,0,0-.58,2.88,1,1,0,0,1-1,1.12H.5c0,6.25,3.83,8,7.5,8a13.76,13.76,0,0,0,12.06-7A4.68,4.68,0,0,0,23.5,11.5Z" style="fill:none;stroke:#303c42;stroke-linecap:round;stroke-linejoin:round"/></g></g>
	<metadata>
		<rdf:RDF xmlns:rdf="http://www.w3.org/1999/02/22-rdf-syntax-ns#" xmlns:rdfs="http://www.w3.org/2000/01/rdf-schema#" xmlns:dc="http://purl.org/dc/elements/1.1/">
			<rdf:Description about="https://iconscout.com/legal#licenses" dc:title="social; media; social media; logo; docker" dc:description="social; media; social media; logo; docker" dc:publisher="Iconscout" dc:date="2017-02-21" dc:format="image/svg+xml" dc:language="en">
				<dc:creator>
					<rdf:Bag>
						<rdf:li>Alpár - Etele Méder</rdf:li>
					</rdf:Bag>
				</dc:creator>
			</rdf:Description>
		</rdf:RDF>
    </metadata></svg>
