<?xml version="1.0" encoding="UTF-8"?><svg xmlns="http://www.w3.org/2000/svg" xmlns:xlink="http://www.w3.org/1999/xlink" viewBox="0 0 50 50" version="1.1"><path d="M28.188-.004c2.75 6.363-9.868 10.293-11.036 15.598-1.078 4.867 7.489 10.527 7.493 10.527-1.301-2.016-2.243-3.68-3.547-6.816C18.89 14 34.53 9.203 28.188-.004zm8.363 8.816s-11.047.7-11.61 7.77c-.25 3.148 2.903 4.828 2.997 7.121.07 1.867-1.887 3.426-1.887 3.426s3.55-.668 4.664-3.524c1.23-3.168-2.387-5.332-2.024-7.867.352-2.425 7.86-6.925 7.86-6.925zm2.68 16.333c-1.157-.051-2.442.332-3.606 1.168 2.281-.489 4.21.906 4.21 2.515 0 3.625-5.237 7.05-5.237 7.05s8.109-.925 8.109-6.878c0-2.46-1.555-3.766-3.477-3.855zm-20.047.007S9.062 25.016 9.062 27.88c0 2.992 13.254 3.203 22.72 1.36 0 0 2.527-1.731 3.198-2.376-6.203 1.266-20.359 1.434-20.359.34 0-1.012 4.563-2.05 4.563-2.05zm-2.446 5.57c-1.55 0-3.867 1.2-3.867 2.356 0 2.324 11.691 4.117 20.348.719l-2.996-1.836c-5.868 1.879-16.684 1.277-13.485-1.238zm1.442 5.2c-2.13 0-3.508 1.312-3.508 2.281 0 2.984 12.707 3.285 17.742.25l-3.2-2.035c-3.76 1.59-13.206 1.805-11.034-.496zm-7.09 2.703c-3.469-.07-5.723 1.488-5.723 2.781-.004 6.875 35.524 6.543 35.524-.484 0-1.164-1.375-1.719-1.871-1.984 2.902 6.718-29.051 6.199-29.051 2.234 0-.902 2.344-1.79 4.523-1.363l-1.847-1.051a11.66 11.66 0 0 0-1.555-.133zm33.547 4.625c-5.403 5.117-19.09 6.984-32.856 3.824 13.762 5.63 32.785 2.461 32.856-3.824z" id="surface1"/><metadata><rdf:RDF xmlns:rdf="http://www.w3.org/1999/02/22-rdf-syntax-ns#" xmlns:rdfs="http://www.w3.org/2000/01/rdf-schema#" xmlns:dc="http://purl.org/dc/elements/1.1/"><rdf:Description about="https://iconscout.com/legal#licenses" dc:title="java,filled" dc:description="java,filled" dc:publisher="Iconscout" dc:date="2017-12-09" dc:format="image/svg+xml" dc:language="en"><dc:creator><rdf:Bag><rdf:li>Icons8</rdf:li></rdf:Bag></dc:creator></rdf:Description></rdf:RDF></metadata></svg>